<svg version="1.2" xmlns="http://www.w3.org/2000/svg" viewBox="0 0 984 255" width="984" height="255"><style>.a{fill:#0a0a0a}.b{fill:#d4d4d4}</style><path class="a" d="m136.6 193.9v18.9q0 17.7-12.5 30.1-12.1 12.1-29.4 12.1h-52.4q-17.3 0-29.8-12.1-12.4-12.4-12.4-30.1v-110.9q0-11.6 5.6-21.1 6.1-9.8 15.5-15.4 9.4-5.7 21.1-5.7h52.4q11.7 0 21.1 5.7 9.4 5.6 15.1 15.4 5.7 9.5 5.7 21.1v19.6q0 7.2-4.9 12.5-4.9 4.9-12.1 4.9h-10.6q-7.1 0-12-4.9-4.9-5.3-4.9-12.5v-11.6q0-2.3-1.9-3.8-1.5-1.5-3.4-1.5h-36.6q-1.9 0-3.7 1.5-1.6 1.5-1.6 3.8v95.7q0 1.9 1.6 3.4 1.8 1.5 3.7 1.5h36.6q1.9 0 3.4-1.5 1.9-1.5 1.9-3.4v-11.7q0-7.1 4.9-12 4.9-5.3 12-5.3h10.6q7.2 0 12.1 5.3 4.9 4.9 4.9 12zm160-92v110.9q0 17.7-12.5 30.1-12.1 12.1-29.4 12.1h-52.4q-17.3 0-29.8-12.1-12.4-12.4-12.4-30.1v-110.9q0-11.6 5.6-21.1 6.1-9.8 15.5-15.4 9.4-5.7 21.1-5.7h52.4q11.7 0 21.1 5.7 9.4 5.6 15.1 15.4 5.7 9.5 5.7 21.1zm-44.5 103.7v-95.7q0-2.3-1.9-3.8-1.5-1.5-3.4-1.5h-36.6q-1.9 0-3.7 1.5-1.6 1.5-1.6 3.8v95.7q0 1.9 1.6 3.4 1.8 1.5 3.7 1.5h36.6q1.9 0 3.4-1.5 1.9-1.5 1.9-3.4zm203.5-188.1v195.3q0 17.7-12.5 30.1-12.1 12.1-29.4 12.1h-52.4q-17.3 0-29.8-12.1-12.4-12.4-12.4-30.1v-110.9q0-11.6 5.6-21.1 6.1-9.8 15.5-15.4 9.4-5.7 21.1-5.7h44.5q5.3 0 5.3-4.5v-37.7q0-7.6 4.9-12.5 4.9-4.9 12-4.9h10.6q7.2 0 12.1 4.9 4.9 4.9 4.9 12.5zm-44.5 188.1v-95.7q0-5.3-5.3-5.3h-36.6q-1.9 0-3.7 1.5-1.6 1.5-1.6 3.8v95.7q0 1.9 1.6 3.4 1.8 1.5 3.7 1.5h36.6q5.3 0 5.3-4.9zm204.5-103.7v41.1q0 11.3-5.7 21.1-5.7 9.5-15.1 15.5-9.4 5.7-21.1 5.7h-44.5q-1.9 0-3.7 1.5-1.6 1.1-1.6 3v15.8q0 1.9 1.6 3.4 1.8 1.5 3.7 1.5h44.5q7.2 0 12.1 4.9 5.2 4.9 5.2 12.5v9.8q0 7.1-5.2 12.4-4.9 4.9-12.1 4.9h-52.4q-17.3 0-29.8-12.1-12.4-12.4-12.4-30.1v-110.9q0-11.6 5.6-21.1 6.1-9.4 15.5-15.1 9.4-6 21.1-6h52.4q11.7 0 21.1 6 9.4 5.7 15.1 15.1 5.7 9.5 5.7 21.1zm-44.5 33.6v-25.6q0-2.3-1.9-3.8-1.5-1.5-3.4-1.5h-36.6q-1.9 0-3.7 1.5-1.6 1.5-1.6 3.8v25.6q0 1.5 1.6 3 1.8 1.5 3.7 1.5h36.6q1.9 0 3.4-1.5 1.9-1.5 1.9-3zm308.5-33.6v135.8q0 7.1-4.9 12.4-4.9 4.9-12.1 4.9h-10.6q-7.1 0-12-4.9-4.9-5.3-4.9-12.4v-127.8q0-2.3-1.9-3.8-1.5-1.5-3.4-1.5h-36.6q-1.9 0-3.7 1.5-1.6 1.5-1.6 3.8v127.8q0 7.1-4.9 12.4-4.9 4.9-12 4.9h-10.6q-7.1 0-12.4-4.9-4.9-5.3-4.9-12.4v-135.8q0-11.6 5.6-21.1 6.1-9.8 15.5-15.4 9.4-5.7 21.1-5.7h52.4q11.7 0 21.1 5.7 9.4 5.6 15.1 15.4 5.7 9.5 5.7 21.1z"/><path class="b" d="m719.5 227.1v10.6q0 7.1-4.9 12.4-4.9 4.9-12.4 4.9h-46.8q-7.1 0-12.4-4.9-4.9-5.3-4.9-12.4v-220.2q0-7.6 4.9-12.5 5.3-4.9 12.4-4.9h46.8q7.5 0 12.4 4.9 4.9 4.9 4.9 12.5v10.2q0 7.1-4.9 12-4.9 4.9-12.4 4.9h-14q-5.3 0-5.3 5.3v155.3q0 5.3 5.3 5.3h14q7.5 0 12.4 4.9 4.9 4.5 4.9 11.7zm264-209.6v220.2q0 7.1-4.9 12.4-4.9 4.9-12.4 4.9h-46.8q-7.1 0-12.4-4.9-4.9-5.3-4.9-12.4v-10.6q0-7.2 4.9-11.7 5.3-4.9 12.4-4.9h14.3q5.3 0 5.3-5.3v-155.3q0-5.3-5.3-5.3h-14.3q-7.1 0-12.4-4.9-4.9-4.9-4.9-12v-10.2q0-7.6 4.9-12.5 5.3-4.9 12.4-4.9h46.8q7.5 0 12.4 4.9 4.9 4.9 4.9 12.5z"/></svg>