<svg version="1.2" xmlns="http://www.w3.org/2000/svg" viewBox="0 0 346 255" width="346" height="255"><style>.a{fill:#d4d4d4}.b{fill:#0a0a0a}</style><path class="a" d="m81.5 227.1v10.6q0 7.1-4.9 12.4-4.9 4.9-12.4 4.9h-46.8q-7.1 0-12.4-4.9-4.9-5.3-4.9-12.4v-220.2q0-7.6 4.9-12.5 5.3-4.9 12.4-4.9h46.8q7.5 0 12.4 4.9 4.9 4.9 4.9 12.5v10.2q0 7.1-4.9 12-4.9 4.9-12.4 4.9h-14q-5.3 0-5.3 5.3v155.3q0 5.3 5.3 5.3h14q7.5 0 12.4 4.9 4.9 4.5 4.9 11.7zm264-209.6v220.2q0 7.1-4.9 12.4-4.9 4.9-12.4 4.9h-46.8q-7.1 0-12.4-4.9-4.9-5.3-4.9-12.4v-10.6q0-7.2 4.9-11.7 5.3-4.9 12.4-4.9h14.3q5.3 0 5.3-5.3v-155.3q0-5.3-5.3-5.3h-14.3q-7.1 0-12.4-4.9-4.9-4.9-4.9-12v-10.2q0-7.6 4.9-12.5 5.3-4.9 12.4-4.9h46.8q7.5 0 12.4 4.9 4.9 4.9 4.9 12.5z"/><path class="b" d="m241.6 101.9v135.8q0 7.1-4.9 12.4-4.9 4.9-12.1 4.9h-10.6q-7.1 0-12-4.9-4.9-5.3-4.9-12.4v-127.8q0-2.3-1.9-3.8-1.5-1.5-3.4-1.5h-36.6q-1.9 0-3.7 1.5-1.6 1.5-1.6 3.8v127.8q0 7.1-4.9 12.4-4.9 4.9-12 4.9h-10.6q-7.1 0-12.4-4.9-4.9-5.3-4.9-12.4v-135.8q0-11.6 5.6-21.1 6.1-9.8 15.5-15.4 9.4-5.7 21.1-5.7h52.4q11.7 0 21.1 5.7 9.4 5.6 15.1 15.4 5.7 9.5 5.7 21.1z"/></svg>